<?xml version="1.0" encoding="UTF-8"?>
<svg id="Layer_2" data-name="Layer 2" xmlns="http://www.w3.org/2000/svg" xmlns:xlink="http://www.w3.org/1999/xlink" viewBox="0 0 28.82 46">
  <defs>
    <style>
      .cls-1 {
        fill: url(#linear-gradient);
      }

      .cls-1, .cls-2, .cls-3, .cls-4, .cls-5, .cls-6 {
        stroke-width: 0px;
      }

      .cls-7 {
        opacity: .15;
      }

      .cls-7, .cls-8 {
        isolation: isolate;
      }

      .cls-8 {
        opacity: .1;
      }

      .cls-2 {
        fill: url(#linear-gradient-5);
      }

      .cls-3 {
        fill: none;
      }

      .cls-9 {
        clip-path: url(#clippath-1);
      }

      .cls-4 {
        fill: url(#linear-gradient-2);
      }

      .cls-5 {
        fill: url(#linear-gradient-3);
      }

      .cls-10 {
        clip-path: url(#clippath);
      }

      .cls-6 {
        fill: url(#linear-gradient-4);
      }
    </style>
    <linearGradient id="linear-gradient" x1="-294.91" y1="-312.58" x2="-294.12" y2="-312.13" gradientTransform="translate(7221.21 7662.83) scale(24.45)" gradientUnits="userSpaceOnUse">
      <stop offset="0" stop-color="#37bdff"/>
      <stop offset=".18" stop-color="#33bffd"/>
      <stop offset=".36" stop-color="#28c5f5"/>
      <stop offset=".53" stop-color="#15d0e9"/>
      <stop offset=".55" stop-color="#12d1e7"/>
      <stop offset=".59" stop-color="#1cd2e5"/>
      <stop offset=".77" stop-color="#42d8dc"/>
      <stop offset=".91" stop-color="#59dbd6"/>
      <stop offset="1" stop-color="#62dcd4"/>
    </linearGradient>
    <linearGradient id="linear-gradient-2" x1="-295.34" y1="-311.89" x2="-294.24" y2="-311.89" gradientTransform="translate(7221.21 7662.83) scale(24.45)" gradientUnits="userSpaceOnUse">
      <stop offset="0" stop-color="#39d2ff"/>
      <stop offset=".15" stop-color="#38cefe"/>
      <stop offset=".29" stop-color="#35c3fa"/>
      <stop offset=".43" stop-color="#2fb0f3"/>
      <stop offset=".55" stop-color="#299aeb"/>
      <stop offset=".58" stop-color="#2692ec"/>
      <stop offset=".76" stop-color="#1a6cf1"/>
      <stop offset=".91" stop-color="#1355f4"/>
      <stop offset="1" stop-color="#104cf5"/>
    </linearGradient>
    <linearGradient id="linear-gradient-3" x1="-295.14" y1="-311.77" x2="-295.14" y2="-313.36" gradientTransform="translate(7221.21 7662.83) scale(24.45)" gradientUnits="userSpaceOnUse">
      <stop offset="0" stop-color="#1b48ef"/>
      <stop offset=".12" stop-color="#1c51f0"/>
      <stop offset=".32" stop-color="#1e69f5"/>
      <stop offset=".57" stop-color="#2190fb"/>
      <stop offset="1" stop-color="#26b8f4"/>
    </linearGradient>
    <clipPath id="clippath">
      <rect class="cls-3" y="27.3" width="27.98" height="18.7"/>
    </clipPath>
    <linearGradient id="linear-gradient-4" x1="-295.14" y1="-311.6" x2="-294.44" y2="-312.3" gradientTransform="translate(7221.21 7662.83) scale(24.45)" gradientUnits="userSpaceOnUse">
      <stop offset="0" stop-color="#fff"/>
      <stop offset=".37" stop-color="#fdfdfd"/>
      <stop offset=".51" stop-color="#f6f6f6"/>
      <stop offset=".6" stop-color="#ebebeb"/>
      <stop offset=".68" stop-color="#dadada"/>
      <stop offset=".75" stop-color="#c4c4c4"/>
      <stop offset=".81" stop-color="#a8a8a8"/>
      <stop offset=".86" stop-color="#888"/>
      <stop offset=".91" stop-color="#626262"/>
      <stop offset=".95" stop-color="#373737"/>
      <stop offset=".99" stop-color="#090909"/>
      <stop offset="1" stop-color="#000"/>
    </linearGradient>
    <clipPath id="clippath-1">
      <rect class="cls-3" width="10.66" height="40.25"/>
    </clipPath>
    <linearGradient id="linear-gradient-5" x1="-295.14" y1="-313.39" x2="-295.14" y2="-311.79" xlink:href="#linear-gradient-4"/>
  </defs>
  <g id="Layer_1-2" data-name="Layer 1">
    <g>
      <path class="cls-1" d="M28.82,29.3c0,3.11-1.09,6.11-3.06,8.39.21-.25.39-.51.55-.8.13-.22.24-.44.33-.67.03-.08.06-.16.09-.24.03-.08.06-.16.08-.24.03-.07.05-.15.07-.23s.04-.16.06-.24v-.03c.03-.08.04-.16.05-.24s.03-.17.04-.25h0c.01-.08.02-.15.03-.23.02-.18.03-.37.03-.55,0-1.01-.25-1.99-.73-2.85-.11-.19-.22-.38-.35-.55-.15-.21-.32-.41-.49-.59-.44-.46-.96-.84-1.52-1.1-.25-.12-.5-.21-.77-.28h-.01l-.09-.03-1.33-.49h0l-3.48-1.29h-.03l-.22-.09c-.7-.3-1.28-.85-1.64-1.56l-1.27-3.5-1.46-4.01-.28-.77-.07-.16c-.08-.21-.12-.44-.12-.67,0-.06,0-.12,0-.18.09-.96.89-1.66,1.78-1.56.16.02.32.06.47.13l6.49,3.59,1.28.71c.68.43,1.31.94,1.89,1.52,2.16,2.13,3.47,5.07,3.67,8.22.01.29.03.58.03.87Z"/>
      <path class="cls-4" d="M27.08,33.97c0,.35-.03.7-.09,1.04-.02.09-.03.18-.05.27-.04.16-.08.31-.12.47-.03.08-.05.16-.08.24s-.06.16-.09.24c-.09.23-.21.46-.33.67-.16.28-.35.55-.55.8-.95,1.13-4.16,3.14-5.34,3.96l-2.63,1.73c-1.93,1.28-3.75,2.19-6.04,2.25h-.32c-.15,0-.29,0-.44,0-3.76-.16-7.22-2.3-9.23-5.73-.91-1.55-1.49-3.31-1.68-5.14.49,2.97,3.13,4.95,5.88,4.41.53-.1,1.04-.29,1.51-.57h.02s.26-.18.26-.18l1.05-.66,1.33-.85v-.04l.17-.11,11.91-7.61.92-.59.09.03h.01c.26.07.52.17.77.28.56.26,1.08.64,1.52,1.1.18.18.34.38.49.59.13.18.25.36.35.55.48.87.73,1.86.72,2.86Z"/>
      <path class="cls-5" d="M10.13,8.57v28.33l-1.34.84-1.05.66-.26.17s-.01,0-.02,0c-2.46,1.43-5.54.44-6.86-2.22-.25-.51-.43-1.06-.53-1.63-.02-.12-.03-.24-.05-.36-.02-.22-.03-.44-.03-.66V1.84C0,.83.76,0,1.7,0c.34,0,.67.11.95.31l5.18,3.65s.06.05.09.07c1.39,1.02,2.21,2.72,2.21,4.53Z"/>
      <g class="cls-7">
        <g class="cls-10">
          <path class="cls-6" d="M27.08,33.97c0,.35-.03.7-.09,1.04-.02.09-.03.18-.05.27-.04.16-.08.31-.12.47-.03.08-.05.16-.08.24s-.06.16-.09.24c-.09.23-.21.46-.33.67-.16.28-.35.55-.55.8-.95,1.13-4.16,3.14-5.34,3.96l-2.63,1.73c-1.93,1.28-3.75,2.19-6.04,2.25h-.32c-.15,0-.29,0-.44,0-3.76-.16-7.22-2.3-9.23-5.73-.91-1.55-1.49-3.31-1.68-5.14.49,2.97,3.13,4.95,5.88,4.41.53-.1,1.04-.29,1.51-.57h.02s.26-.18.26-.18l1.05-.66,1.33-.85v-.04l.17-.11,11.91-7.61.92-.59.09.03h.01c.26.07.52.17.77.28.56.26,1.08.64,1.52,1.1.18.18.34.38.49.59.13.18.25.36.35.55.48.87.73,1.86.72,2.86Z"/>
        </g>
      </g>
      <g class="cls-8">
        <g class="cls-9">
          <path class="cls-2" d="M10.13,8.57v28.33l-1.34.84-1.05.66-.26.17s-.01,0-.02,0c-2.46,1.43-5.54.44-6.86-2.22-.25-.51-.43-1.06-.53-1.63-.02-.12-.03-.24-.05-.36-.02-.22-.03-.44-.03-.66V1.84C0,.83.76,0,1.7,0c.34,0,.67.11.95.31l5.18,3.65s.06.05.09.07c1.39,1.02,2.21,2.72,2.21,4.53Z"/>
        </g>
      </g>
    </g>
  </g>
</svg>