<?xml version="1.0" encoding="UTF-8"?>
<svg id="Layer_2" data-name="Layer 2" xmlns="http://www.w3.org/2000/svg" viewBox="0 0 46 46">
  <defs>
    <style>
      .cls-1 {
        fill: #ff9d00;
      }

      .cls-1, .cls-2, .cls-3, .cls-4, .cls-5, .cls-6 {
        stroke-width: 0px;
      }

      .cls-2 {
        fill: #ffd21e;
      }

      .cls-2, .cls-3, .cls-4 {
        fill-rule: evenodd;
      }

      .cls-3 {
        fill: #32343d;
      }

      .cls-4 {
        fill: #ffad03;
      }

      .cls-5 {
        fill: #fff;
      }

      .cls-6 {
        fill: #ff323d;
      }
    </style>
  </defs>
  <g id="Layer_1-2" data-name="Layer 1">
    <g>
      <path class="cls-5" d="M45.84,33.82c-.12-.49-.31-.95-.58-1.37.06-.22.1-.44.13-.67.19-1.44-.28-2.75-1.15-3.77-.47-.56-.98-.92-1.51-1.15.35-1.62.53-3.28.53-4.95,0-.76-.04-1.51-.11-2.24-.03-.37-.08-.73-.13-1.1-.15-1.08-.38-2.14-.68-3.18-.2-.68-.42-1.36-.68-2.01-.39-.98-.84-1.92-1.35-2.83-.34-.6-.7-1.19-1.1-1.75-.19-.28-.39-.56-.6-.83-.62-.81-1.29-1.57-2.02-2.28-.24-.24-.49-.47-.74-.69-.25-.22-.5-.44-.76-.65-.52-.42-1.06-.81-1.62-1.18-3.08-2.01-6.69-3.17-10.55-3.17C11.69,0,2.59,9.81,2.59,21.91c0,1.69.18,3.37.54,5.01-.48.23-.94.58-1.37,1.09-.87,1.02-1.33,2.33-1.15,3.77.03.23.07.45.13.68-.26.42-.45.88-.57,1.37-.27,1.1-.18,2.09.16,2.95-.37,1.13-.28,2.34.2,3.39.35.77.85,1.36,1.47,1.89.74.63,1.66,1.16,2.77,1.68,1.32.61,2.94,1.18,3.68,1.39,1.9.53,3.72.87,5.57.88,2.63.03,4.9-.64,6.52-2.34.8.11,1.6.16,2.4.16.85,0,1.7-.06,2.54-.17,1.62,1.72,3.89,2.39,6.53,2.36,1.85-.02,3.67-.35,5.56-.88.74-.21,2.36-.78,3.68-1.39,1.11-.51,2.03-1.05,2.77-1.68.61-.53,1.12-1.12,1.47-1.89.49-1.05.57-2.26.21-3.39.34-.87.43-1.86.16-2.96ZM43.96,36.7c.37.76.4,1.62.07,2.43-.5,1.22-1.74,2.18-4.15,3.2-1.5.64-2.87,1.05-2.88,1.05-1.98.55-3.77.83-5.33.83-2.57,0-4.48-.76-5.69-2.27-2.05.38-4.14.39-6.2.04-1.21,1.48-3.11,2.23-5.66,2.23-1.55,0-3.34-.28-5.33-.83-.01,0-1.38-.41-2.88-1.05-2.41-1.03-3.65-1.99-4.15-3.2-.33-.8-.31-1.66.07-2.43.03-.07.07-.14.11-.21-.22-.36-.37-.77-.44-1.2-.07-.43-.05-.87.05-1.29.15-.61.45-1.11.87-1.47-.2-.35-.33-.75-.39-1.16-.12-.89.16-1.79.78-2.51.48-.57,1.16-.88,1.92-.88h.02c-.57-1.97-.86-4.01-.86-6.07C3.9,10.68,12.35,1.57,22.77,1.57s18.88,9.1,18.88,20.33c0,2.06-.29,4.12-.86,6.09.09,0,.18-.01.27-.01.75,0,1.44.31,1.92.88.62.73.89,1.62.78,2.51-.05.41-.19.81-.39,1.16.42.36.72.87.87,1.47.1.42.12.86.05,1.29-.07.43-.22.84-.44,1.2.04.07.08.14.11.21Z"/>
      <path class="cls-1" d="M43.85,36.49c.22-.36.37-.77.44-1.2.07-.43.05-.87-.05-1.29-.15-.61-.45-1.11-.87-1.47.2-.35.33-.75.39-1.16.12-.89-.16-1.79-.78-2.51-.48-.57-1.16-.88-1.92-.88-.09,0-.18,0-.27.01.57-1.97.86-4.02.86-6.09,0-11.23-8.45-20.33-18.87-20.33S3.9,10.68,3.9,21.91c0,2.06.29,4.11.86,6.07h-.02c-.75,0-1.44.31-1.92.88-.62.73-.89,1.62-.78,2.51.05.41.19.81.39,1.16-.42.36-.72.87-.87,1.47-.1.42-.12.86-.05,1.29.07.43.22.84.44,1.2-.04.07-.08.14-.11.21-.37.76-.4,1.62-.07,2.43.5,1.22,1.74,2.18,4.15,3.2,1.5.64,2.87,1.05,2.88,1.05,1.98.55,3.77.83,5.33.83,2.55,0,4.45-.75,5.66-2.23,2.05.35,4.15.34,6.2-.04,1.21,1.51,3.12,2.27,5.69,2.27,1.55,0,3.34-.28,5.32-.83.01,0,1.38-.41,2.88-1.05,2.41-1.03,3.65-1.99,4.15-3.2.33-.8.31-1.66-.07-2.43-.03-.07-.07-.14-.11-.21ZM18.91,39.66c-.1.2-.22.39-.34.58-.31.49-.73.87-1.21,1.15-.92.54-2.07.73-3.25.73-1.86,0-3.77-.47-4.84-.77-.05-.01-6.55-1.99-5.73-3.68.14-.28.37-.4.65-.4,1.16,0,3.27,1.86,4.17,1.86.2,0,.35-.09.4-.32.39-1.49-5.87-2.12-5.35-4.28.09-.38.35-.54.7-.54,1.53,0,4.97,2.9,5.69,2.9.06,0,.09-.02.12-.05,0,0,0-.01,0-.02.34-.6.14-1.04-2.17-2.56l-.22-.15c-2.54-1.66-4.33-2.66-3.31-3.85.12-.14.28-.2.48-.2.24,0,.53.09.85.23,1.34.61,3.21,2.27,3.98,3,.12.11.24.23.36.35,0,0,.98,1.1,1.58,1.1.14,0,.25-.06.33-.2.42-.77-3.92-4.31-4.17-5.78-.17-.99.12-1.49.64-1.49.25,0,.55.11.89.34,1.04.71,3.04,4.42,3.78,5.87.25.48.67.69,1.04.69.75,0,1.34-.8.07-1.83-1.91-1.54-1.24-4.05-.33-4.21.04,0,.08-.01.12-.01.83,0,1.19,1.54,1.19,1.54,0,0,1.07,2.9,2.91,4.88,1.67,1.8,1.9,3.27.93,5.11ZM24.86,40h-.1s-.16.03-.16.03c-.09,0-.17.02-.26.03h-.08s-.08.02-.08.02h-.11s-.12.02-.12.02h-.12s-.03.01-.03.01c-.03,0-.06,0-.09,0h-.04s-.07,0-.11,0h-.13s-.12.01-.12.01h-.08s-.04,0-.04,0c-.02,0-.05,0-.07,0h-.04s-.05,0-.07,0h-.1s-.14,0-.14,0c-.11,0-.22,0-.33,0h-.09s-.05,0-.08,0h-.09s-.12,0-.12,0h-.1s-.03,0-.03,0h-.1s-.06,0-.08-.01h-.06c-.08,0-.16-.02-.24-.02h-.08s-.07-.01-.11-.02c-.04,0-.08,0-.13-.01-.07,0-.14-.01-.21-.02h0c1.02-2.45.5-4.74-1.56-6.96-1.35-1.46-2.25-3.6-2.44-4.08-.38-1.4-1.38-2.95-3.04-2.95-.14,0-.28.01-.42.04-.73.12-1.36.57-1.82,1.25-.49-.66-.97-1.18-1.4-1.47-.65-.44-1.3-.67-1.93-.67-.79,0-1.49.35-1.98.98v.02s-.03-.08-.04-.13h0c-.09-.44-.17-.87-.24-1.31,0,0,0,0,0,0,0-.03,0-.07-.01-.1-.01-.1-.03-.2-.04-.29,0-.04-.01-.09-.02-.13l-.02-.13s0-.08-.01-.13h0c-.02-.18-.03-.36-.05-.53v-.07s-.01-.11-.01-.11c0-.03,0-.06,0-.09,0,0,0-.01,0-.02,0-.09-.01-.17-.01-.26,0-.05,0-.09,0-.14v-.12s0-.04,0-.04v-.11s0-.09,0-.09c0-.04,0-.07,0-.11,0-.04,0-.08,0-.12,0-.04,0-.08,0-.12,0-.04,0-.08,0-.12C5.85,11.84,13.43,3.67,22.77,3.67s16.93,8.16,16.93,18.23v.24s0,.08,0,.12c0,.03,0,.06,0,.1,0,.03,0,.06,0,.09,0,.04,0,.07,0,.11h0s0,.13,0,.13c0,.04,0,.07,0,.11v.03s0,.12,0,.12c-.01.26-.03.51-.05.77h0s0,.09-.01.13v.1s-.03.19-.03.19v.1s-.03.12-.03.12c0,.04-.01.08-.02.13,0,.05-.01.09-.02.14l-.02.11-.02.13s-.01.08-.02.12c0,.04-.01.08-.02.12-.01.08-.03.17-.04.25-.02.12-.05.25-.07.37l-.02.12s-.02.08-.03.12c-.48-.5-1.11-.77-1.8-.77-.63,0-1.28.22-1.93.67-.43.29-.91.82-1.4,1.47-.45-.68-1.09-1.13-1.82-1.25-.14-.02-.28-.04-.42-.04-1.66,0-2.66,1.55-3.04,2.95-.19.47-1.09,2.62-2.44,4.08-2.06,2.21-2.58,4.49-1.58,6.94ZM42.33,35.09v.02s-.04.1-.07.14c-.02.03-.03.07-.05.1-.04.06-.08.12-.12.17-.01.01-.02.03-.03.04-.02.02-.03.04-.05.05-.3.32-.76.6-1.28.86-.06.03-.12.06-.18.09l-.06.03s-.08.04-.12.06c-.04.02-.08.04-.12.06l-.12.06c-.29.13-.59.25-.88.37l-.12.05-.12.05c-.08.03-.16.07-.24.1l-.12.05-.12.05-.06.03s-.08.03-.11.05c-.86.4-1.47.8-1.34,1.3,0,.01,0,.03.01.04.01.04.03.07.05.1.01.02.03.04.04.05.15.17.43.14.78,0,.05-.02.1-.04.15-.06h.03c.08-.05.16-.09.25-.14.02-.01.04-.02.07-.03.43-.23.91-.53,1.39-.8.19-.11.39-.22.58-.32.46-.23.88-.39,1.23-.39.16,0,.3.04.42.12h.02c.07.07.14.14.18.23,0,.02.02.03.03.05.17.35.03.71-.31,1.06-.32.34-.82.67-1.38.98-.04.02-.08.05-.13.07-1.68.89-3.88,1.56-3.91,1.57-.59.16-1.43.38-2.37.54l-.14.02h-.02c-.11.02-.21.04-.32.05-.11.02-.22.03-.33.04h-.02c-.4.05-.8.08-1.2.1h0c-.14,0-.29,0-.43,0h-.17c-.22,0-.44-.01-.66-.03,0,0-.01,0-.02,0-.08,0-.16-.01-.24-.02-.08,0-.16-.02-.24-.03-.05,0-.11-.02-.16-.03-.05,0-.11-.02-.16-.03h-.07s0-.02,0-.02c-.08-.02-.15-.03-.23-.05-.04-.01-.09-.02-.13-.03h-.03s-.04-.02-.06-.03h-.01s-.07-.03-.07-.03c-.03,0-.05-.02-.08-.02h0s-.06-.02-.06-.02c-.02,0-.05-.02-.07-.03l-.06-.02-.04-.02s-.08-.03-.13-.05l-.04-.02h-.03c-.06-.04-.13-.07-.19-.1l-.04-.02h0s-.03-.02-.04-.02c-.03-.01-.06-.03-.09-.05h0s-.04-.03-.04-.03c-.07-.04-.14-.08-.21-.13l-.04-.03s-.04-.03-.06-.04l-.05-.04-.05-.04-.03-.02s-.07-.05-.1-.08l-.05-.04s-.04-.04-.06-.05c-.02-.02-.03-.03-.05-.05h0s-.04-.04-.05-.05c-.02-.02-.03-.03-.05-.05h0s-.04-.04-.05-.06c-.02-.02-.03-.04-.05-.06-.02-.02-.03-.04-.05-.06-.02-.02-.03-.04-.05-.06h0s-.03-.04-.04-.06c-.03-.04-.06-.08-.09-.13-.03-.04-.06-.09-.09-.13l-.03-.04c-.04-.06-.07-.12-.11-.18-.03-.04-.05-.09-.08-.13-.02-.03-.03-.05-.05-.08h0s-.03-.06-.04-.09c0-.01-.02-.03-.02-.04,0-.01-.02-.03-.02-.05v-.02s-.02-.02-.02-.02c-.01-.03-.03-.06-.04-.09,0-.01-.01-.03-.02-.04l-.02-.04-.02-.04c-.05-.11-.1-.22-.14-.33l-.02-.04s-.02-.05-.03-.08c0-.01,0-.03-.01-.04-.02-.07-.05-.13-.07-.2,0-.02-.01-.05-.02-.07-.02-.05-.03-.11-.04-.17-.02-.06-.03-.13-.04-.2,0-.01,0-.03,0-.04-.01-.06-.02-.13-.03-.19,0-.01,0-.03,0-.04v-.04c0-.05-.01-.1-.01-.15,0-.01,0-.03,0-.04,0-.03,0-.05,0-.08-.01-1.03.47-2.02,1.5-3.13,1.84-1.98,2.91-4.88,2.91-4.88,0,0,.03-.12.09-.3,0-.02.02-.05.03-.08.03-.1.07-.19.12-.29v-.02c.05-.08.09-.16.13-.23.01-.02.02-.03.03-.05.03-.05.07-.1.1-.15.02-.03.04-.05.06-.08,0-.01.02-.02.03-.03.11-.12.23-.22.37-.27h.02s.02-.01.04-.02c.01,0,.03,0,.04-.01h0s.06-.01.09-.01h0s.03,0,.05,0c.02,0,.04,0,.06,0,.02,0,.04,0,.06,0,.17.03.32.13.46.3.05.06.1.13.14.2.03.05.05.1.08.15,0,.02.02.04.03.06.02.05.04.11.06.17.04.13.08.27.1.41.02.12.03.24.03.37,0,.07,0,.13,0,.2-.01.31-.07.62-.18.91,0,.03-.02.05-.03.08-.02.05-.04.11-.07.16-.02.04-.04.08-.06.12-.01.03-.03.05-.04.08-.04.07-.07.13-.12.2l-.03.04c-.1.15-.21.29-.33.42-.12.13-.25.25-.38.35-.13.11-.26.23-.38.36-.34.38-.41.71-.34.97.01.04.03.08.05.12.02.04.05.08.08.12h.01s.01.03.01.03c.01.01.02.02.04.04h.01s.07.06.1.08c.01,0,.02.01.03.02.04.02.08.04.12.05.01,0,.02,0,.03.01h.01s.02,0,.02,0h.02s.02,0,.02,0h.02s.02,0,.02,0c.01,0,.03,0,.04,0h.01s.02,0,.02,0h.01s.02,0,.02,0h.04s.08,0,.08,0h.02s.03,0,.03,0h.03s.03,0,.03,0c0,0,.01,0,.02,0,.09-.01.18-.04.26-.08l.04-.02s.04-.02.06-.03c.04-.02.08-.05.11-.07.05-.04.1-.08.14-.12.01-.01.02-.02.03-.03,0,0,.01-.01.01-.02,0-.01.02-.02.03-.03.07-.08.13-.18.18-.28.44-.86.9-1.7,1.37-2.53l.07-.11.07-.11c.03-.06.07-.11.1-.17l.03-.06c.11-.19.22-.37.34-.56l.07-.11c.14-.22.27-.43.41-.63l.07-.1c.15-.22.3-.43.46-.64l.06-.08s.02-.03.03-.04c.02-.03.04-.05.06-.08.01-.01.02-.03.03-.04l.06-.07.03-.04s.06-.07.09-.1c.02-.02.04-.04.06-.06.11-.12.24-.24.37-.33l.03-.02s.06-.04.09-.06c.53-.32.97-.35,1.22-.08.15.16.24.44.23.81,0,.02,0,.03,0,.05v.02s0,.03,0,.05c0,.02,0,.04,0,.06,0,.02,0,.04,0,.06,0,0,0,.01,0,.02,0,.02,0,.03,0,.05,0,0,0,.01,0,.02,0,.02,0,.05,0,.07,0,.02,0,.04,0,.06v.04s-.02.07-.03.1c-.02.06-.04.12-.06.18-.03.08-.07.16-.11.24-.02.04-.05.08-.07.13-.03.04-.05.09-.08.13-.07.11-.14.22-.22.32l-.03.05c-.12.17-.25.33-.38.49l-.04.05c-.06.07-.11.14-.17.2l-.04.05s-.06.07-.09.1c-.03.03-.06.07-.09.1l-.09.1-.09.1-.09.1c-.06.07-.13.14-.19.21-.91,1-1.86,2-2.18,2.62-.02.04-.04.08-.06.12-.05.11-.07.21-.05.29,0,.03.01.05.02.07.02.03.04.07.07.09.01.01.02.02.04.03.07.05.15.08.23.07h.05s.03,0,.03,0h.02s0,0,0,0h.02s0,0,0,0h.02s0,0,0,0c0,0,.02,0,.02,0,0,0,.02,0,.03,0,.04-.01.08-.03.12-.05.02,0,.04-.02.06-.03.01,0,.02,0,.03-.02l.03-.02c.07-.04.14-.08.21-.13l.03-.02s.02-.01.03-.02l.03-.02h.02s.04-.04.04-.04c.04-.03.08-.06.12-.09h0s.06-.05.06-.05c.08-.07.16-.14.23-.21l.05-.04h0s.02-.03.02-.03c.06-.06.11-.11.15-.15l.02-.02s.03-.03.04-.04l.03-.03h0s0-.01,0-.01l.03-.03.02-.02h0s0,0,0,0h0s0-.01,0-.01h0s.05-.05.05-.05l.03-.02s.03-.03.04-.04l.03-.03s.01-.01.02-.02l.03-.03.05-.04.03-.02c.1-.09.22-.2.35-.32l.06-.05.09-.08.09-.08c.12-.11.26-.23.39-.35l.09-.08c.08-.07.16-.14.24-.2.03-.03.07-.06.1-.08.08-.07.17-.14.25-.21.19-.16.39-.31.59-.46l.09-.06c.06-.04.12-.09.18-.13l.05-.04c.11-.08.22-.15.32-.23l.05-.04.05-.04c.05-.04.11-.07.16-.11l.05-.03.11-.07.1-.06h.02s.08-.06.08-.06c.03-.02.07-.04.1-.06l.05-.03.05-.03s.03-.02.05-.03c.11-.06.23-.11.34-.16.03-.01.06-.03.09-.04l.09-.03s.05-.02.08-.03h0s.03-.01.04-.02h0s.06-.02.08-.03h0c.08-.02.16-.04.24-.04.04,0,.07,0,.11,0h.02s.05,0,.07,0c.01,0,.02,0,.03,0h0s.02,0,.03,0c.01,0,.02,0,.03,0h0s.02,0,.03,0c.06.02.11.04.16.08.02.02.05.04.07.06h0s0,.01.01.02h.01c.09.11.16.23.22.36v.02s.04.1.05.15c.03.16.02.32-.04.47-.02.06-.05.12-.08.17-.07.13-.15.24-.25.35l-.02.02s-.06.07-.09.1c-.01.02-.03.03-.04.05l-.05.05-.02.02c-.06.06-.12.11-.18.16-.04.03-.07.06-.11.09-.13.11-.26.21-.4.31-.08.06-.16.12-.25.18-.21.15-.41.29-.62.42-.44.29-.93.6-1.45.94l-.13.09c-.15.1-.29.19-.42.28l-.07.04-.12.09c-.08.06-.17.11-.25.17l-.07.05s-.06.05-.1.07l-.03.02-.1.07-.05.04-.06.04-.06.04c-.09.07-.18.14-.26.2l-.03.02s-.09.08-.14.12c-.07.06-.13.12-.19.17l-.03.03s-.03.03-.05.05c-.01.01-.02.02-.03.03v.02s-.08.07-.11.11v.02s-.08.08-.1.12v.02s-.05.06-.07.1c0,0,0,.02-.01.02v.02s-.02.02-.02.02h0s0,.02,0,.02h0c-.01.06-.02.1-.03.14h0s0,.03,0,.03v.08s0,.01,0,.02h0s0,.02,0,.03c0,0,0,.02,0,.03h0s0,.02,0,.03,0,.02,0,.03c0,.02,0,.03.02.05,0,.01,0,.02.01.03,0,0,0,0,0,0v.02s.02.03.02.03c.01.03.03.05.04.08v.03s.03.03.03.03c0,0,0,0,0,.01h0s0,.01,0,.01h0s.02.02.03.02c0,0,.01,0,.02,0,.13.03.39-.08.75-.28.02-.01.04-.02.06-.04l.11-.06.05-.03s.08-.05.11-.07l.07-.04c.47-.29,1.02-.66,1.6-1.02.05-.03.11-.07.16-.1l.11-.07c.13-.08.25-.15.38-.23.16-.09.32-.19.48-.28l.11-.06c.07-.04.14-.07.21-.11.13-.07.27-.13.41-.19l.07-.03h0c.4-.17.76-.28,1.05-.28.06,0,.13,0,.19.02h0s.04,0,.06.01h0s.09.03.14.06c.06.03.12.08.16.13.02.03.04.05.06.08.03.05.06.11.07.17,0,.02.01.05.02.07.05.18.04.38-.01.55Z"/>
      <path class="cls-2" d="M39.7,22.02v-.12c0-10.07-7.58-18.23-16.92-18.23S5.85,11.84,5.85,21.9v.04s0,.05,0,.08c0,.04,0,.08,0,.12v.09s0,.03,0,.03c0,.01,0,.03,0,.04,0,.02,0,.05,0,.07v.09s0,.11,0,.11v.04s0,.11,0,.11h0c0,.05,0,.09,0,.14h0s0,.09,0,.14c0,.04,0,.08,0,.13h0s0,.08,0,.12h0s0,.11,0,.11h0s0,.05,0,.07c.01.17.03.35.05.52h0s.01.14.01.14l.02.13v.09s.02.04.02.04c.01.1.02.2.04.29h0s.01.1.01.1c.06.44.14.88.24,1.31h0s0,.04,0,.04l.02.09v-.02c.5-.63,1.21-.98,2-.98.63,0,1.28.23,1.93.67.43.29.91.82,1.4,1.47.45-.68,1.09-1.13,1.82-1.25.14-.02.28-.04.42-.04,1.66,0,2.66,1.55,3.04,2.95.19.47,1.09,2.62,2.44,4.07,2.06,2.22,2.58,4.51,1.56,6.96h0c.07,0,.14.02.21.02.04,0,.08,0,.13.01h.01s.09,0,.09,0h.08c.08.01.16.02.24.03h.06s.05,0,.05,0h.03s.1,0,.1,0h.03s.1,0,.1,0h.12s.09,0,.09,0h.02s.04,0,.06,0h.02c.13,0,.26,0,.4,0h.24s.05,0,.07,0h.07s.03,0,.04,0h.12s.12,0,.12,0h.13s.07,0,.11-.01h.04s.06,0,.06,0h.03s.03,0,.03,0h.12s.12-.02.12-.02h.11s.08-.02.08-.02h.08c.14-.02.28-.04.42-.06h.1c-1-2.45-.48-4.74,1.57-6.95,1.35-1.46,2.25-3.61,2.44-4.08.38-1.4,1.38-2.95,3.04-2.95.14,0,.28.01.42.04.73.12,1.36.57,1.82,1.25.49-.66.97-1.18,1.4-1.47.65-.44,1.3-.67,1.93-.67.7,0,1.33.27,1.8.77,0-.04.02-.08.03-.12l.02-.12s.02-.09.03-.13c.01-.08.03-.16.04-.24.01-.08.03-.17.04-.25v-.04s.02-.05.02-.08c0-.04.01-.08.02-.12v-.02s.02-.11.02-.11l.02-.11h0c.01-.08.02-.16.03-.25v-.02s.02-.11.02-.11v-.1s.03-.19.03-.19v-.08s0-.02,0-.02c0-.04,0-.08.01-.13h0s0-.07,0-.1c.02-.19.03-.38.04-.57,0-.03,0-.06,0-.09h0s0-.12,0-.12v-.03c0-.08,0-.16.01-.24h0s0-.03,0-.03c0-.03,0-.05,0-.08h0s0-.06,0-.09v-.02s0-.05,0-.08v-.02s0-.06,0-.1v-.12ZM18.58,40.24c1.34-2.12,1.25-3.71-.59-5.69-1.84-1.98-2.91-4.88-2.91-4.88,0,0-.4-1.68-1.31-1.53s-1.58,2.67.33,4.21c1.91,1.54-.38,2.58-1.11,1.14-.73-1.44-2.74-5.16-3.78-5.87-1.04-.71-1.77-.31-1.53,1.15.12.73,1.25,1.97,2.31,3.12,1.07,1.18,2.07,2.27,1.86,2.65-.42.77-1.91-.9-1.91-.9,0,0-4.66-4.57-5.68-3.38-.94,1.1.51,2.03,2.73,3.47.19.12.38.25.58.38,2.54,1.66,2.74,2.1,2.38,2.72-.13.23-.98-.32-2.03-1-1.79-1.16-4.14-2.68-4.47-1.31-.29,1.18,1.44,1.9,3.02,2.56,1.31.55,2.51,1.05,2.33,1.72-.18.7-1.17.12-2.25-.52-1.21-.72-2.54-1.51-2.98-.62-.82,1.68,5.68,3.66,5.73,3.68,2.1.59,7.43,1.83,9.29-1.11ZM27.21,40.24c-1.34-2.12-1.25-3.71.59-5.69,1.84-1.98,2.91-4.88,2.91-4.88,0,0,.4-1.68,1.31-1.53.91.15,1.58,2.67-.33,4.21-1.91,1.54.38,2.58,1.11,1.14.73-1.44,2.74-5.16,3.78-5.87s1.77-.31,1.53,1.15c-.12.73-1.25,1.97-2.31,3.12-1.07,1.18-2.07,2.27-1.86,2.65.42.77,1.91-.9,1.91-.9,0,0,4.66-4.57,5.68-3.38.94,1.1-.51,2.03-2.73,3.47-.19.13-.39.25-.58.38-2.54,1.66-2.74,2.1-2.38,2.72.13.23.99-.32,2.03-1,1.79-1.15,4.14-2.68,4.47-1.31.29,1.18-1.44,1.9-3.02,2.56-1.31.55-2.51,1.05-2.33,1.72.18.7,1.17.12,2.25-.52,1.21-.72,2.54-1.51,2.98-.62.82,1.68-5.68,3.66-5.73,3.67-2.1.59-7.43,1.83-9.29-1.11Z"/>
      <path class="cls-3" d="M28.27,16.94c.26.1.46.41.65.7.25.39.49.76.85.55.43-.24.77-.62,1-1.07.23-.46.33-.98.28-1.49-.03-.39-.15-.76-.33-1.09-.18-.33-.44-.62-.73-.83-.3-.22-.64-.36-1-.42-.36-.06-.72-.03-1.06.08-.34.11-.66.3-.93.56-.27.26-.48.58-.62.94s-.2.74-.18,1.13c.02.39.11.77.28,1.11.17.34.54.18.93.01.31-.13.63-.27.87-.18ZM16.8,16.94c-.26.1-.46.41-.65.7-.25.39-.49.76-.85.55-.53-.31-.94-.81-1.15-1.43-.21-.61-.19-1.29.04-1.89s.66-1.09,1.21-1.37c.55-.28,1.17-.33,1.75-.14.46.15.87.44,1.18.84.31.4.5.89.54,1.41.05.52-.05,1.04-.27,1.49-.17.34-.54.18-.93.01-.31-.13-.63-.27-.87-.18ZM26.5,28.19c1.82-1.54,2.49-4.06,2.49-5.62,0-1.23-.77-.84-1.99-.19l-.07.04c-1.13.6-2.63,1.4-4.27,1.4s-3.14-.8-4.27-1.4c-1.27-.68-2.06-1.1-2.06.15,0,1.6.71,4.23,2.66,5.76.26-.56.62-1.06,1.06-1.47.44-.41.96-.71,1.52-.89.19-.06.4.3.6.67.2.36.4.72.61.72.22,0,.44-.36.65-.71.22-.37.43-.72.64-.65,1.04.36,1.92,1.14,2.44,2.18Z"/>
      <path class="cls-6" d="M26.5,28.19c-.95.8-2.21,1.34-3.85,1.34-1.54,0-2.75-.48-3.67-1.2.26-.56.62-1.06,1.06-1.47.44-.41.96-.71,1.52-.89.38-.12.79,1.39,1.21,1.39.45,0,.88-1.5,1.29-1.36,1.04.36,1.92,1.14,2.44,2.18Z"/>
      <path class="cls-4" d="M12.45,19.13c-.22.16-.47.25-.72.28-.26.03-.52-.01-.76-.12-.19-.09-.37-.21-.51-.37-.15-.16-.26-.35-.34-.55-.1-.26-.14-.54-.11-.82.03-.28.11-.55.26-.78.17-.28.42-.5.71-.63s.61-.16.91-.1c.31.07.59.23.81.47.22.24.37.54.43.87.06.33.03.67-.09.99-.12.31-.32.58-.58.77ZM35.1,19.13c-.22.16-.47.25-.72.28-.26.03-.52-.01-.76-.12-.19-.09-.37-.21-.51-.37-.15-.16-.26-.35-.34-.55-.1-.26-.14-.54-.11-.82.03-.28.11-.55.26-.78.13-.21.3-.39.5-.52.2-.13.43-.21.66-.23.23-.02.47,0,.69.09.22.09.42.22.59.4.22.24.37.54.43.87.06.33.03.67-.09.99s-.32.58-.58.77Z"/>
    </g>
  </g>
</svg>