<?xml version="1.0" encoding="UTF-8"?>
<svg id="Layer_2" data-name="Layer 2" xmlns="http://www.w3.org/2000/svg" viewBox="0 0 32.82 46">
  <defs>
    <style>
      .cls-1 {
        fill: #20beff;
        stroke-width: 0px;
      }
    </style>
  </defs>
  <g id="Layer_1-2" data-name="Layer 1">
    <path class="cls-1" d="M32.82,45.69c-.06.23-.28.31-.75.31h-7.53c-.47,0-.85-.15-1.22-.46l-12.38-12.79-3.44,2.65v9.92c0,.46-.28.69-.85.69H.85c-.56,0-.85-.23-.85-.69V.69C0,.23.28,0,.85,0h5.74c.56,0,.85.23.85.69v27.46l14.77-12.11c.39-.32.78-.48,1.17-.48h7.72c.34,0,.56.11.67.34.11.31.09.46-.09.61l-15.81,12.39c16.94,16.02,16.94,16.78,16.94,16.78"/>
  </g>
</svg>