<?xml version="1.0" encoding="UTF-8"?>
<svg id="Layer_2" data-name="Layer 2" xmlns="http://www.w3.org/2000/svg" viewBox="0 0 46 46">
  <defs>
    <style>
      .cls-1 {
        fill: #000;
      }

      .cls-1, .cls-2 {
        stroke-width: 0px;
      }

      .cls-2 {
        fill: #fff;
      }
    </style>
  </defs>
  <g id="Layer_1-2" data-name="Layer 1">
    <g>
      <path class="cls-1" d="M4.34,41.76c-.13-.42-.18-.65-.27-.86-1.32-3.06-1.32-3.1,1.62-3.33,8.54-.66,17.07-1.28,25.61-1.91,3.49-.26,6.99-.55,10.48-.77.5-.03,1.01.23,1.52.35-.29.5-.5,1.15-.89,1.46-2.84,2.23-5.71,4.38-8.58,6.56-.28.21-.57.4-.86.6.02.21.04.41.07.62.85-.1,1.74-.05,2.55-.34.59-.21,1.07-.86,1.58-1.33,2.15-1.98,3.83-1.92,5.95.11.72.69,1.6,1.16,2.37,1.79.23.19.35.57.52.87-.29.15-.67.53-.85.42-.93-.54-1.88-1.1-2.68-1.86-1.93-1.83-2.81-1.89-4.75-.05-2.73,2.59-4.07,2.58-6.76,0-1.86-1.79-2.8-1.79-4.63-.02-2.66,2.56-3.96,2.57-6.63,0-1.82-1.75-2.46-1.76-4.35-.08-2.94,2.62-4.43,2.58-7.35-.21-1.93-1.84-1.92-1.82-4-.16-.95.76-1.94,1.46-2.97,2.07-.24.14-.68-.18-1.02-.29.21-.33.36-.76.63-.96,1.22-.92,2.46-1.77,3.71-2.66ZM40.56,37.01c-.05-.22-.1-.44-.15-.67-11.85.91-23.7,1.83-35.88,2.77.49.81.7,1.49,1.11,1.78,1.16.84,2.48,1.38,3.59,2.29,2.07,1.71,3.07,1.77,5.13-.07.36-.32.72-.65,1.09-.95,1.44-1.12,2.94-1.07,4.33.15.4.35.76.77,1.16,1.14,1.58,1.48,2.61,1.48,4.17,0,.35-.34.69-.7,1.05-1.02,1.53-1.37,3.06-1.37,4.75-.24.47.31,1.28.46,1.72.18,2.69-1.71,5.31-3.55,7.95-5.36Z"/>
      <path class="cls-1" d="M29.53,33.87c-2.02-.65-3.92-1.33-5.85-1.88-5.62-1.62-10.9-.48-15.92,2.84-.42.28-.97.29-1.46.43.18-.55.27-1.18.54-1.65,4.48-7.77,5.02-16.13,2.48-24.88-.72-2.48-1.77-4.82-2.67-7.23-.15-.41-.27-.85-.22-1.51,5.25,2.08,9.49,5.97,13.33,10.56,6.21,7.41,10.43,19.21,9.77,23.32ZM28.3,32.04C27.57,22,15.32,3.93,8.39,2.6c4.26,9.76,4.97,19.63.56,29.97,6.59-3.69,12.89-3.21,19.35-.53Z"/>
      <path class="cls-1" d="M38.87,33.86c-1-.39-1.64-.69-2.3-.89-.72-.22-1.53-.68-2.17-.47-1.9.6-2.24-.73-2.83-2.42-1.62-4.7-3.33-9.37-5.27-13.88-1.57-3.68-4.08-6.49-6.86-8.93-.34-.3-.52-.88-.77-1.33.45-.07.99-.36,1.34-.16,1.48.85,3.01,1.66,4.32,2.82,6.79,6.03,11.45,13.98,14.3,23.49.13.42.12.89.24,1.79ZM25.35,11.64c3.56,5.94,5.98,12.53,7.81,19.39.74,0,1.35-.06,1.93.02.63.09,1.24.31,2.08.53-2.5-8.06-6.26-14.76-11.82-19.93Z"/>
      <path class="cls-2" d="M40.56,37.01c-2.64,1.8-5.27,3.65-7.95,5.36-.43.28-1.25.13-1.72-.18-1.69-1.13-3.22-1.13-4.75.24-.36.32-.69.69-1.05,1.02-1.56,1.48-2.59,1.48-4.17,0-.39-.37-.76-.79-1.16-1.14-1.39-1.22-2.89-1.27-4.33-.15-.38.29-.73.62-1.09.95-2.06,1.85-3.06,1.78-5.13.07-1.11-.92-2.43-1.46-3.59-2.29-.4-.29-.62-.96-1.11-1.78,12.19-.94,24.04-1.85,35.88-2.77.05.22.1.44.15.67Z"/>
      <path class="cls-2" d="M28.3,32.04c-6.46-2.68-12.76-3.16-19.35.53,4.41-10.34,3.7-20.21-.56-29.97,6.93,1.33,19.17,19.39,19.91,29.44Z"/>
      <path class="cls-2" d="M25.35,11.64c5.56,5.17,9.32,11.87,11.82,19.93-.85-.22-1.46-.44-2.08-.53-.59-.08-1.19-.02-1.93-.02-1.83-6.86-4.24-13.44-7.81-19.39Z"/>
    </g>
  </g>
</svg>